<?xml version="1.0" encoding="UTF-8" standalone="no"?>
<!-- Created with Inkscape (http://www.inkscape.org/) -->

<svg
   width="109.59822mm"
   height="115.59822mm"
   viewBox="0 0 388.34016 409.59999"
   id="svg3476"
   version="1.1"
   inkscape:version="1.1 (c68e22c387, 2021-05-23)"
   sodipodi:docname="logo-css-2.svg"
   xmlns:inkscape="http://www.inkscape.org/namespaces/inkscape"
   xmlns:sodipodi="http://sodipodi.sourceforge.net/DTD/sodipodi-0.dtd"
   xmlns="http://www.w3.org/2000/svg"
   xmlns:svg="http://www.w3.org/2000/svg"
   xmlns:rdf="http://www.w3.org/1999/02/22-rdf-syntax-ns#"
   xmlns:cc="http://creativecommons.org/ns#"
   xmlns:dc="http://purl.org/dc/elements/1.1/">
  <defs
     id="defs3478" />
  <sodipodi:namedview
     id="base"
     pagecolor="#ffffff"
     bordercolor="#666666"
     borderopacity="1.0"
     inkscape:pageopacity="0.0"
     inkscape:pageshadow="2"
     inkscape:zoom="3.959798"
     inkscape:cx="226.90552"
     inkscape:cy="80.433396"
     inkscape:document-units="px"
     inkscape:current-layer="layer1"
     showgrid="false"
     fit-margin-top="0"
     fit-margin-left="0"
     fit-margin-right="0"
     fit-margin-bottom="0"
     inkscape:window-width="3440"
     inkscape:window-height="1361"
     inkscape:window-x="-9"
     inkscape:window-y="-9"
     inkscape:window-maximized="1"
     inkscape:pagecheckerboard="0"
     width="81.89727mm"
     showguides="false" />
  <metadata
     id="metadata3481">
    <rdf:RDF>
      <cc:Work
         rdf:about="">
        <dc:format>image/svg+xml</dc:format>
        <dc:type
           rdf:resource="http://purl.org/dc/dcmitype/StillImage" />
      </cc:Work>
    </rdf:RDF>
  </metadata>
  <g
     inkscape:label="Calque 1"
     inkscape:groupmode="layer"
     id="layer1"
     transform="translate(-229.9064,-327.5622)">
    <g
       id="g3013"
       transform="matrix(0.8,0,0,0.8,221.22747,327.72962)">
      <polygon
         id="polygon2989"
         points="404.321,470.819 255.778,512 107.644,470.877 74.633,100.62 437.367,100.62 "
         style="fill:#264de4" />
      <polygon
         id="polygon2991"
         points="256,480.523 376.03,447.246 404.27,130.894 256,130.894 "
         style="fill:#2965f1" />
      <polygon
         id="polygon2993"
         points="256,268.217 150.31,268.217 154.38,313.627 256,313.627 "
         style="fill:#ebebeb" />
      <polygon
         id="polygon2995"
         points="255.843,176.305 142.132,176.305 146.26,221.716 256,221.716 256,176.305 "
         style="fill:#ebebeb" />
      <polygon
         id="polygon2997"
         points="201.994,336.333 177.419,336.333 156.409,336.333 162.771,407.634 255.791,433.457 256,433.399 256,386.153 255.801,386.206 205.227,372.55 "
         style="fill:#ebebeb" />
      <path
         id="path2999"
         d="m 160,0 h 55 v 23 h -32 v 23 h 32 v 23 h -55 z"
         inkscape:connector-curvature="0" />
      <path
         id="path3001"
         d="m 226,0 h 55 v 20 h -32 v 4 h 32 V 70 H 226 V 49 h 32 v -4 h -32 z"
         inkscape:connector-curvature="0" />
      <path
         id="path3003"
         d="m 292,0 h 55 v 20 h -32 v 4 h 32 V 70 H 292 V 49 h 32 v -4 h -32 z"
         inkscape:connector-curvature="0" />
      <polygon
         id="polygon3005"
         points="306.49,372.521 255.843,386.191 255.843,433.435 348.937,407.634 349.62,399.962 360.291,280.411 361.399,268.217 369.597,176.305 255.843,176.305 255.843,221.716 319.831,221.716 315.699,268.217 255.843,268.217 255.843,313.627 311.761,313.627 "
         style="fill:#ffffff" />
    </g>
    <path
       style="fill:#ffffff;stroke-width:0.133928"
       d="m 349.30441,355.31891 v -27.58929 h 21.89732 21.89732 v 9.17411 9.17411 H 380.30887 367.5187 v 9.24107 9.24107 h 12.79017 12.79018 v 9.17411 9.1741 h -21.89732 -21.89732 z"
       id="path2187" />
    <path
       style="fill:#ffffff;stroke-width:0.133928"
       d="m 402.07227,375.34123 v -8.37054 h 12.79018 12.79017 v -1.6741 -1.67411 h -12.79017 -12.79018 v -17.94643 -17.94643 h 21.96428 21.96429 v 7.96875 7.96875 h -12.79018 -12.79018 v 1.67411 1.67411 h 12.79018 12.79018 v 18.34821 18.34821 h -21.96429 -21.96428 z"
       id="path2226" />
    <path
       style="fill:#ffffff;stroke-width:0.133928"
       d="m 454.84013,375.34123 v -8.37054 h 12.85714 12.85714 v -1.6741 -1.67411 h -12.85714 -12.85714 v -17.94643 -17.94643 h 21.96428 21.96429 v 7.96875 7.96875 h -12.79018 -12.79018 v 1.67411 1.67411 h 12.79018 12.79018 v 18.34821 18.34821 h -21.96429 -21.96428 z"
       id="path2265" />
  </g>
</svg>
