<?xml version="1.0" encoding="utf-8"?>
<!-- Generator: Adobe Illustrator 18.0.0, SVG Export Plug-In . SVG Version: 6.00 Build 0)  -->
<!DOCTYPE svg PUBLIC "-//W3C//DTD SVG 1.1//EN" "http://www.w3.org/Graphics/SVG/1.1/DTD/svg11.dtd">
<svg version="1.1" id="Layer_1" xmlns="http://www.w3.org/2000/svg" xmlns:xlink="http://www.w3.org/1999/xlink" x="0px" y="0px"
	 viewBox="1060.8 140 780.5 615.2" enable-background="new 1060.8 140 780.5 615.2" xml:space="preserve">
<g>
	<path fill="#0091E2" d="M1833.7,379.4c-2.2-1.8-21.7-16.7-63.7-16.7c-10.9,0-22.1,1.1-32.9,2.9c-8-55.4-53.9-82.2-55.7-83.6
		l-11.2-6.5l-7.2,10.5c-9,14.1-15.9,30-19.9,46.3c-7.6,31.5-2.9,61.2,13,86.5c-19.2,10.9-50.3,13.4-56.8,13.8h-514
		c-13.4,0-24.3,10.9-24.3,24.3c-0.7,44.9,6.9,89.8,22.4,132.1c17.7,46.3,44.2,80.7,78.2,101.7c38.4,23.5,101,36.9,171.6,36.9
		c31.9,0,63.7-2.9,95.2-8.7c43.8-8,85.8-23.2,124.5-45.2c31.9-18.5,60.5-42,84.7-69.5c40.9-46,65.2-97.4,82.9-143h7.2
		c44.5,0,72-17.7,87.2-32.9c10.1-9.4,17.7-21,23.2-34l3.3-9.4L1833.7,379.4z"/>
	<path fill="#0091E2" d="M1132.5,417.4h68.8c3.3,0,6.2-2.5,6.2-6.2v-61.5c0-3.3-2.5-6.2-6.2-6.2h-68.8c-3.3,0-6.2,2.5-6.2,6.2v61.5
		C1126.7,414.8,1129.3,417.4,1132.5,417.4z M1227.4,417.4h68.8c3.3,0,6.2-2.5,6.2-6.2v-61.5c0-3.3-2.5-6.2-6.2-6.2h-68.8
		c-3.3,0-6.2,2.5-6.2,6.2v61.5C1221.6,414.8,1224.1,417.4,1227.4,417.4 M1324,417.4h68.8c3.3,0,6.2-2.5,6.2-6.2v-61.5
		c0-3.3-2.5-6.2-6.2-6.2H1324c-3.3,0-6.2,2.5-6.2,6.2v61.5C1317.8,414.8,1320.4,417.4,1324,417.4z M1419.2,417.4h68.8
		c3.3,0,6.2-2.5,6.2-6.2v-61.5c0-3.3-2.5-6.2-6.2-6.2h-68.8c-3.3,0-6.2,2.5-6.2,6.2v61.5C1413.1,414.8,1415.9,417.4,1419.2,417.4z
		 M1227.4,329.8h68.8c3.3,0,6.2-2.9,6.2-6.2v-61.5c0-3.3-2.5-6.2-6.2-6.2h-68.8c-3.3,0-6.2,2.5-6.2,6.2v61.5
		C1221.6,326.5,1224.1,329.8,1227.4,329.8 M1324,329.8h68.8c3.3,0,6.2-2.9,6.2-6.2v-61.5c0-3.3-2.5-6.2-6.2-6.2H1324
		c-3.3,0-6.2,2.5-6.2,6.2v61.5C1317.8,326.5,1320.4,329.8,1324,329.8 M1419.2,329.8h68.8c3.3,0,6.2-2.9,6.2-6.2v-61.5
		c0-3.3-2.9-6.2-6.2-6.2h-68.8c-3.3,0-6.2,2.5-6.2,6.2v61.5C1413.1,326.5,1415.9,329.8,1419.2,329.8 M1419.2,241.4h68.8
		c3.3,0,6.2-2.5,6.2-6.2v-61.5c0-3.3-2.9-6.2-6.2-6.2h-68.8c-3.3,0-6.2,2.5-6.2,6.2v61.5C1413.1,238.2,1415.9,241.4,1419.2,241.4
		 M1515.1,417.7h68.8c3.3,0,6.2-2.5,6.2-6.2V350c0-3.3-2.5-6.2-6.2-6.2h-68.8c-3.3,0-6.2,2.5-6.2,6.2v61.5
		C1509.7,415.2,1511.9,417.7,1515.1,417.7"/>
</g>
</svg>
