<?xml version="1.0" encoding="utf-8"?>
<!-- Generator: Adobe Illustrator 18.0.0, SVG Export Plug-In . SVG Version: 6.00 Build 0)  -->
<!DOCTYPE svg PUBLIC "-//W3C//DTD SVG 1.1//EN" "http://www.w3.org/Graphics/SVG/1.1/DTD/svg11.dtd">
<svg version="1.1" id="Layer_1" xmlns="http://www.w3.org/2000/svg" xmlns:xlink="http://www.w3.org/1999/xlink" x="0px" y="0px"
	 viewBox="0 8.6 2499.6 2489.4" enable-background="new 0 8.6 2499.6 2489.4" xml:space="preserve">
<path fill="#FFFFFF" d="M2499.6,1312.4c0-210.2-130.6-391.8-324.4-463.2c8.2-44.4,12.3-89.5,12.2-134.7c0-389.7-316.3-706-706-706
	c-226.5,0-438.7,108.1-571.3,293.8c-65.3-51-144.9-77.5-228.5-77.5c-206.1,0-375.4,167.3-375.4,375.4c0,44.9,8.2,89.8,22.4,130.6
	C132.6,798.2,0,986,0,1194.1c0,210.2,130.6,393.8,326.5,465.2c-8.2,42.9-12.2,87.7-12.2,134.7c0,387.7,316.3,704,704,704
	c228.5,0,438.7-110.2,571.3-293.8c65.3,51,146.9,79.6,230.6,79.6c206.1,0,375.4-167.3,375.4-375.4c0-44.9-8.2-89.8-22.4-130.6
	C2364.9,1708.3,2499.6,1520.6,2499.6,1312.4L2499.6,1312.4z"/>
<path fill="#F4BD19" d="M977.4,1077.8l557.1,255.1L2097.6,839c8.2-41,12.3-82.7,12.2-124.5c0-346.9-281.6-628.5-628.5-628.5
	c-208.1,0-402,102-518.3,273.4l-93.9,485.6L977.4,1077.8L977.4,1077.8z"/>
<path fill="#3CBEB1" d="M399.9,1667.5c-8.2,40.8-12.2,83.7-12.2,126.5c0,346.9,283.6,630.5,630.5,630.5
	c210.2,0,404-104.1,522.4-275.5l91.8-485.6l-124.5-236.7l-559.1-255.1L399.9,1667.5L399.9,1667.5z"/>
<path fill="#E9478C" d="M395.9,702.3l381.6,89.8l85.7-434.6c-53-40.8-116.3-61.2-183.6-61.2c-165.3,0-302,134.7-302,302
	C377.5,632.9,383.6,669.7,395.9,702.3L395.9,702.3z"/>
<path fill="#2C458F" d="M363.2,794.1c-171.4,55.1-289.7,220.4-289.7,399.9c0,175.5,108.1,332.6,271.4,393.8l536.7-485.6l-97.9-210.2
	L363.2,794.1L363.2,794.1z"/>
<path fill="#95C63D" d="M1638.5,2147c53,40.8,116.3,63.3,181.6,63.3c165.3,0,302-134.7,302-302c0-36.7-6.1-71.4-18.4-104.1
	l-381.6-89.8L1638.5,2147L1638.5,2147z"/>
<path fill="#176655" d="M1716.1,1614.4l420.3,97.9c171.4-57.1,289.7-220.4,289.7-399.9c0-175.5-108.1-330.6-271.4-393.8
	l-550.9,481.6L1716.1,1614.4L1716.1,1614.4z"/>
</svg>
