<?xml version="1.0" encoding="utf-8"?>
<!-- Generator: Adobe Illustrator 18.0.0, SVG Export Plug-In . SVG Version: 6.00 Build 0)  -->
<!DOCTYPE svg PUBLIC "-//W3C//DTD SVG 1.1//EN" "http://www.w3.org/Graphics/SVG/1.1/DTD/svg11.dtd">
<svg version="1.1" id="Layer_1" xmlns="http://www.w3.org/2000/svg" xmlns:xlink="http://www.w3.org/1999/xlink" x="0px" y="0px"
	 viewBox="219 0 522 560" enable-background="new 219 0 522 560" xml:space="preserve">
<path fill="#FFA000" d="M543.3,202.3l-56,52.1l-52-104.9l26.9-60.3c6.8-12,17.9-12.2,24.7,0L543.3,202.3z"/>
<path fill="#F57F17" d="M487.3,254.4L277.8,449.2l157.5-299.7L487.3,254.4z"/>
<path fill="#FFCA28" d="M604.7,122.5c10-9.6,20.4-6.3,23,7.2l54.5,316.8L501.5,555.1c-6.3,3.5-23.1,4.9-23.1,4.9s-15.3-1.9-21.1-5.1
	L277.8,449.2L604.7,122.5z"/>
<path fill="#FFA000" d="M435.3,149.5L277.8,449.2L348,11.1c2.6-13.6,10.3-15,17.3-2.9L435.3,149.5z"/>
</svg>
