<?xml version="1.0" encoding="utf-8"?>
<!-- Generator: Adobe Illustrator 18.0.0, SVG Export Plug-In . SVG Version: 6.00 Build 0)  -->
<!DOCTYPE svg PUBLIC "-//W3C//DTD SVG 1.1//EN" "http://www.w3.org/Graphics/SVG/1.1/DTD/svg11.dtd">
<svg version="1.1" id="Layer_1" xmlns="http://www.w3.org/2000/svg" xmlns:xlink="http://www.w3.org/1999/xlink" x="0px" y="0px"
	 viewBox="233 0 494 560" enable-background="new 233 0 494 560" xml:space="preserve">
<path fill="#E24329" d="M481.6,448.3L570.4,175H392.8L481.6,448.3L481.6,448.3z"/>
<path fill="#FC6D26" d="M481.6,448.3L392.8,175H268.4L481.6,448.3z"/>
<path fill="#FCA326" d="M268.4,175l-27,83c-2.5,7.6,0.2,15.9,6.7,20.6l233.5,169.7L268.4,175L268.4,175z"/>
<path fill="#E24329" d="M268.4,175h124.4L339.3,10.5c-2.8-8.5-14.7-8.5-17.5,0L268.4,175L268.4,175z"/>
<path fill="#FC6D26" d="M481.6,448.3L570.4,175h124.4L481.6,448.3L481.6,448.3z"/>
<path fill="#FCA326" d="M694.8,175l27,83c2.5,7.6-0.2,15.9-6.7,20.6L481.6,448.3L694.8,175L694.8,175z"/>
<path fill="#E24329" d="M694.8,175H570.4l53.5-164.6c2.8-8.5,14.7-8.5,17.5,0L694.8,175L694.8,175z"/>
<path fill="#FFFFFF" d="M329.9,533c0,14.1-7.4,20.1-22.6,20.1h-22.6c-15.2,0-22.6-5.9-22.6-20.1v-54c0-14.1,7.4-20.1,22.6-20.1h22.8
	c15.1,0,22.6,6,22.6,20.1v3.9c0,1-0.7,2-1.7,2.2l-9.4,2.5c-1.4,0.4-2.9-0.7-2.9-2.2v-3.9c0-6.9-2.2-9.8-10.5-9.8h-19.2
	c-8.2,0-10.6,2.9-10.6,9.8v48.9c0,6.9,2.4,9.8,10.6,9.8h19c8.2,0,10.5-2.9,10.5-9.8v-4.6c0-1.5,1.5-2.7,2.9-2.2l9.4,2.8
	c1,0.3,1.7,1.1,1.7,2.2V533z"/>
<path fill="#FFFFFF" d="M349.8,540.1h23.9v-68.5h-22.2c-1.3,0-2.2-1-2.2-2.2v-8.2c0-1.3,1-2.2,2.2-2.2h58.5c1.3,0,2.2,1,2.2,2.2v8.2
	c0,1.3-1,2.2-2.2,2.2h-22.4v68.5h23.9c1.3,0,2.2,1,2.2,2.2v8.4c0,1.3-1,2.2-2.2,2.2h-61.7c-1.3,0-2.2-1-2.2-2.2v-8.4
	C347.4,541.2,348.5,540.1,349.8,540.1z"/>
<path fill="#FFFFFF" d="M595.9,533c0,14.1-7.4,20.1-22.6,20.1h-22.8c-15.1,0-22.6-5.9-22.6-20.1v-54c0-14.1,7.4-20.1,22.6-20.1h22.8
	c15.1,0,22.6,6,22.6,20.1v3.9c0,1-0.7,2-1.7,2.2l-9.4,2.5c-1.4,0.4-2.9-0.7-2.9-2.2v-3.9c0-6.9-2.2-9.8-10.5-9.8h-19
	c-8.2,0-10.6,2.9-10.6,9.8v48.9c0,6.9,2.4,9.8,10.6,9.8h19c8.2,0,10.5-2.9,10.5-9.8v-4.6c0-1.5,1.5-2.7,2.9-2.2l9.4,2.8
	c1,0.3,1.7,1.1,1.7,2.2V533z"/>
<path fill="#FFFFFF" d="M681.5,533c0,14.1-7,20.1-22.2,20.1h-43.8c-1.3,0-2.2-1-2.2-2.2v-89.6c0-1.3,1-2.2,2.2-2.2h43.8
	c15.1,0,22.2,5.9,22.2,20.1V533z M667.5,481.5c0-6.9-2.2-9.8-10.5-9.8h-29.9v68.5H657c8.2,0,10.5-2.9,10.5-9.8V481.5z"/>
<path fill="#D72D20" d="M487.1,455.9c-0.5-0.1-1.1,0-1.4,0.4l-29.3,42.7c-1,1.5-0.7,3.4,0.7,4.6l14.1,11.9l16.5-58.7
	C488,456.5,487.6,456.1,487.1,455.9L487.1,455.9z"/>
<path fill="#F8911E" d="M490.7,508.4l-14.1-11.9l-16.5,58.7c-0.1,0.4,0.2,0.9,0.6,1c0.1,0.1,0.3,0.1,0.4,0.1c0.4,0,0.7-0.1,0.9-0.4
	l29.3-42.7C492.6,511.5,492.3,509.6,490.7,508.4L490.7,508.4z"/>
</svg>
