<?xml version="1.0" encoding="utf-8"?>
<!-- Generator: Adobe Illustrator 18.0.0, SVG Export Plug-In . SVG Version: 6.00 Build 0)  -->
<!DOCTYPE svg PUBLIC "-//W3C//DTD SVG 1.1//EN" "http://www.w3.org/Graphics/SVG/1.1/DTD/svg11.dtd">
<svg version="1.1" id="Layer_1" xmlns="http://www.w3.org/2000/svg" xmlns:xlink="http://www.w3.org/1999/xlink" x="0px" y="0px"
	 viewBox="128 -31 704 607" enable-background="new 128 -31 704 607" xml:space="preserve">
<g>
	<path fill="#EA4335" d="M568.5,145h20.1l57.2-57.2l2.8-24.3c-106.4-93.9-269-83.8-363,22.7c-26.1,29.6-45.1,64.8-55.4,102.8
		c6.3-2.6,13.4-3,20.1-1.2l114.5-18.9c0,0,5.9-9.6,8.8-9c50.9-55.9,136.6-62.4,195.3-14.9H568.5L568.5,145z"/>
	<path fill="#4285F4" d="M727.4,189c-13.1-48.4-40.1-91.9-77.7-125.2l-80.3,80.3c33.9,27.7,53.3,69.4,52.4,113.2v14.3
		c39.4,0,71.4,32,71.4,71.4s-32,71.4-71.4,71.4H478.9l-14.3,14.5v85.7l14.3,14.3h142.9c81.9,0.7,154.7-52.5,179-130.7
		S795.3,234.9,727.4,189L727.4,189z"/>
	<path fill="#34A853" d="M335.6,528.1h142.9V413.6H335.6c-10.2,0-20.2-2.2-29.5-6.4l-20.1,6.2l-57.6,57.2l-5,20.1
		C255.7,515.1,295.2,528.2,335.6,528.1L335.6,528.1z"/>
	<path fill="#FBBC05" d="M335.6,156.8c-79.4,0.5-149.7,51.4-175.1,126.6s-0.1,158.3,62.8,206.7l83-83
		c-35.9-16.3-51.9-58.6-35.7-94.6s58.6-51.9,94.6-35.7c15.8,7.2,28.6,19.9,35.7,35.7l83-83C448.6,183.6,393.7,156.6,335.6,156.8
		L335.6,156.8z"/>
</g>
</svg>
