<?xml version="1.0" encoding="UTF-8" standalone="no"?>
<svg
   viewBox="0 0 512 512"
   version="1.1"
   id="svg2468"
   sodipodi:docname="logo-html.svg"
   inkscape:version="1.1 (c68e22c387, 2021-05-23)"
   xmlns:inkscape="http://www.inkscape.org/namespaces/inkscape"
   xmlns:sodipodi="http://sodipodi.sourceforge.net/DTD/sodipodi-0.dtd"
   xmlns="http://www.w3.org/2000/svg"
   xmlns:svg="http://www.w3.org/2000/svg"
   xmlns:rdf="http://www.w3.org/1999/02/22-rdf-syntax-ns#"
   xmlns:cc="http://creativecommons.org/ns#"
   xmlns:dc="http://purl.org/dc/elements/1.1/">
  <defs
     id="defs2472" />
  <sodipodi:namedview
     id="namedview2470"
     pagecolor="#ffffff"
     bordercolor="#666666"
     borderopacity="1.0"
     inkscape:pageshadow="2"
     inkscape:pageopacity="0.0"
     inkscape:pagecheckerboard="0"
     showgrid="false"
     inkscape:zoom="1.7050781"
     inkscape:cx="256"
     inkscape:cy="254.82703"
     inkscape:window-width="3440"
     inkscape:window-height="1361"
     inkscape:window-x="-9"
     inkscape:window-y="-9"
     inkscape:window-maximized="1"
     inkscape:current-layer="svg2468" />
  <title
     id="title2456">HTML5 Logo</title>
  <path
     d="M108.4 0h23v22.8h21.2V0h23v69h-23V46h-21v23h-23.2M206 23h-20.3V0h63.7v23H229v46h-23M259.5 0h24.1l14.8 24.3L313.2 0h24.1v69h-23V34.8l-16.1 24.8l-16.1-24.8v34.2h-22.6M348.7 0h23v46.2h32.6V69h-55.6"
     id="path2458" />
  <path
     fill="#e44d26"
     d="M107.6 471l-33-370.4h362.8l-33 370.2L255.7 512"
     id="path2460" />
  <path
     fill="#f16529"
     d="M256 480.5V131H404.3L376 447"
     id="path2462" />
  <path
     fill="#ebebeb"
     d="M142 176.3h114v45.4h-64.2l4.2 46.5h60v45.3H154.4M156.4 336.3H202l3.2 36.3 50.8 13.6v47.4l-93.2-26"
     id="path2464" />
  <path
     fill="#fff"
     d="M369.6 176.3H255.8v45.4h109.6M361.3 268.2H255.8v45.4h56l-5.3 59-50.7 13.6v47.2l93-25.8"
     id="path2466" />
  <metadata
     id="metadata2474">
    <rdf:RDF>
      <cc:Work
         rdf:about="">
        <dc:title>HTML5 Logo</dc:title>
      </cc:Work>
    </rdf:RDF>
  </metadata>
  <path
     style="fill:#ffffff;stroke-width:0.586483"
     d="M 108.79267,34.309278 V 0 h 11.14318 11.14319 v 11.436426 11.436426 h 10.84994 10.84994 V 11.436426 0 h 11.14319 11.14318 V 34.309278 68.618557 H 163.92211 152.77892 V 57.182131 45.745704 h -10.84994 -10.84994 v 11.436427 11.436426 h -11.14319 -11.14318 z"
     id="path2550" />
  <path
     style="fill:#ffffff;stroke-width:0.586483"
     d="M 206.14891,45.745704 V 22.872852 h -9.97022 -9.97021 V 11.436426 0 h 31.37686 31.37686 V 11.436426 22.872852 H 238.69874 228.43528 V 45.745704 68.618557 H 217.2921 206.14891 Z"
     id="path2589" />
  <path
     style="fill:#ffffff;stroke-width:0.586483"
     d="M 259.5189,34.309278 V 0 l 11.87629,0.01272 11.87629,0.01272001 7.28369,12.03692699 c 4.00602,6.620309 7.46855,12.15118 7.6945,12.290823 0.22594,0.139643 3.77575,-5.282698 7.88846,-12.049647 L 313.61577,0 h 11.65947 11.65947 v 34.309278 34.309279 h -11.14319 -11.14318 l -0.0195,-17.154639 c -0.0187,-16.416871 -0.0637,-17.101836 -1.04603,-15.926838 -0.56459,0.67529 -4.18467,6.142779 -8.04464,12.149975 -3.85996,6.007196 -7.15007,10.927555 -7.31136,10.934142 -0.16128,0.0066 -3.70167,-5.274273 -7.86753,-11.735226 -4.16587,-6.460952 -7.79473,-11.883422 -8.06415,-12.049931 -0.26942,-0.16651 -0.48985,7.366439 -0.48985,16.739886 v 17.042631 h -11.1432 -11.14318 z"
     id="path2628" />
  <path
     style="fill:#ffffff;stroke-width:0.586483"
     d="M 349.25086,34.309278 V 0 h 11.14318 11.14319 v 23.166094 23.166094 h 16.12829 16.12829 v 11.143184 11.143185 h -27.27147 -27.27148 z"
     id="path2667" />
</svg>
