<?xml version="1.0" encoding="utf-8"?>
<!-- Generator: Adobe Illustrator 18.0.0, SVG Export Plug-In . SVG Version: 6.00 Build 0)  -->
<!DOCTYPE svg PUBLIC "-//W3C//DTD SVG 1.1//EN" "http://www.w3.org/Graphics/SVG/1.1/DTD/svg11.dtd">
<svg version="1.1" id="Layer_1" xmlns="http://www.w3.org/2000/svg" xmlns:xlink="http://www.w3.org/1999/xlink" x="0px" y="0px"
	 viewBox="194 194 2112 2112" enable-background="new 194 194 2112 2112" xml:space="preserve">
<path fill="#599636" d="M1252.7,240.4l54.2,101.8c12.2,18.8,25.4,35.4,40.9,50.9c45.6,45,88,93,127.1,143.8
	c91.8,120.5,153.7,254.4,197.9,399.2c26.5,88.4,40.9,179.2,42,270.9c4.4,274.3-89.6,509.8-279.1,705.5c-30.8,31-64.1,59.5-99.6,85.1
	c-18.8,0-27.7-14.4-35.4-27.7c-14.1-24.6-23.5-51.6-27.7-79.6c-6.7-33.2-11-66.4-8.9-100.6v-15.5
	C1262.7,1770.8,1246.1,248.2,1252.7,240.4L1252.7,240.4z"/>
<path fill="#6CAC48" d="M1252.7,237c-2.2-4.4-4.4-1.1-6.7,1.1c1.1,22.2-6.7,42-18.8,60.9c-13.3,18.8-31,33.2-48.7,48.7
	c-98.3,85.1-175.7,188-237.7,303c-82.5,154.8-125,320.7-137,495.4c-5.5,63,19.9,285.3,39.8,349.4c54.2,170.3,151.5,313,277.6,436.8
	c31,29.8,64.1,57.5,98.3,84.1c10,0,11-8.9,13.3-15.5c4.4-14.1,7.7-28.5,10-43.1l22.2-165.8L1252.7,237z"/>
<path fill="#C2BFBF" d="M1306.9,2064.9c2.2-25.4,14.4-46.4,27.7-67.4c-13.3-5.5-23.2-16.5-31-28.7c-6.7-11.6-12.2-23.8-16.5-36.5
	c-15.5-46.4-18.8-95.2-23.2-142.6v-28.7c-5.5,4.4-6.7,42-6.7,47.6c-3.2,50.2-9.9,100-19.9,149.3c-3.3,19.9-5.5,39.8-17.8,57.5
	c0,2.2,0,4.4,1.1,7.7c19.9,58.6,25.4,118.3,28.7,179.2v22.2c0,26.5-1.1,20.9,20.9,29.8c8.9,3.3,18.8,4.4,27.7,11
	c6.7,0,7.7-5.5,7.7-10l-3.3-36.5v-101.8C1301.3,2099.2,1304.6,2081.5,1306.9,2064.9L1306.9,2064.9z"/>
</svg>
