<?xml version="1.0" encoding="utf-8"?>
<!-- Generator: Adobe Illustrator 18.0.0, SVG Export Plug-In . SVG Version: 6.00 Build 0)  -->
<!DOCTYPE svg PUBLIC "-//W3C//DTD SVG 1.1//EN" "http://www.w3.org/Graphics/SVG/1.1/DTD/svg11.dtd">
<svg version="1.1" id="Layer_1" xmlns="http://www.w3.org/2000/svg" xmlns:xlink="http://www.w3.org/1999/xlink" x="0px" y="0px"
	 viewBox="1.4 0.7 2493.7 2480.8" enable-background="new 1.4 0.7 2493.7 2480.8" xml:space="preserve">
<linearGradient id="SVGID_1_" gradientUnits="userSpaceOnUse" x1="769.71" y1="1525.3971" x2="770.3768" y2="1524.7355" gradientTransform="matrix(1849.2675 0 0 -1853.392 -1423164.5 2827388.5)">
	<stop  offset="0" style="stop-color:#387EB8"/>
	<stop  offset="1" style="stop-color:#366994"/>
</linearGradient>
<path fill="url(#SVGID_1_)" d="M1239.3,0.7c-633.1,0-593.5,274.5-593.5,274.5l0.7,284.4h604.1v85.4H406.5
	c0,0-405.1-45.9-405.1,592.8C1.4,1876.6,355,1854,355,1854h211v-296.4c0,0-11.4-353.6,347.9-353.6h599.2c0,0,336.6,5.4,336.6-325.4
	V331.7C1849.8,331.7,1900.9,0.7,1239.3,0.7z M906.2,192c60-0.1,108.6,48.5,108.7,108.5c0,0.1,0,0.1,0,0.2
	c0.1,60-48.5,108.6-108.5,108.7c-0.1,0-0.1,0-0.2,0c-60,0.1-108.6-48.5-108.7-108.5c0-0.1,0-0.1,0-0.2C797.4,240.7,846,192,906,192
	C906.1,192,906.1,192,906.2,192z"/>
<linearGradient id="SVGID_2_" gradientUnits="userSpaceOnUse" x1="769.7717" y1="1525.3115" x2="770.4879" y2="1524.6331" gradientTransform="matrix(1849.2671 0 0 -1853.3917 -1422519.75 2828015.5)">
	<stop  offset="0" style="stop-color:#FFE052"/>
	<stop  offset="1" style="stop-color:#FFC331"/>
</linearGradient>
<path fill="url(#SVGID_2_)" d="M1257.3,2481.5c633.1,0,593.5-274.5,593.5-274.5l-0.7-284.4H1246v-85.4H2090
	c0,0,405.1,45.9,405.1-592.8c0-638.8-353.6-616.1-353.6-616.1h-211v296.4c0,0,11.4,353.6-347.9,353.6H983.4
	c0,0-336.6-5.4-336.6,325.4v547C646.8,2150.5,595.7,2481.5,1257.3,2481.5L1257.3,2481.5z M1590.4,2290.2
	c-60,0.1-108.6-48.5-108.7-108.5c0-0.1,0-0.1,0-0.2c-0.1-60,48.5-108.6,108.5-108.7c0.1,0,0.1,0,0.2,0
	c60-0.1,108.6,48.5,108.7,108.5c0,0.1,0,0.1,0,0.2c0.1,60-48.5,108.6-108.5,108.7C1590.5,2290.2,1590.5,2290.2,1590.4,2290.2
	L1590.4,2290.2z"/>
</svg>
