<?xml version="1.0" encoding="utf-8"?>
<!-- Generator: Adobe Illustrator 18.0.0, SVG Export Plug-In . SVG Version: 6.00 Build 0)  -->
<!DOCTYPE svg PUBLIC "-//W3C//DTD SVG 1.1//EN" "http://www.w3.org/Graphics/SVG/1.1/DTD/svg11.dtd">
<svg version="1.1" xmlns="http://www.w3.org/2000/svg" xmlns:xlink="http://www.w3.org/1999/xlink" x="0px" y="0px"
	 viewBox="0 0 222.8 331.9" enable-background="new 0 0 222.8 331.9" xml:space="preserve">
<g id="rellno" display="none">
	<rect x="0" y="0" display="inline" fill="#3F0B34" width="222.8" height="331.9"/>
</g>
<g id="N">
	<g id="guias_2_" display="none">
	</g>
	<g opacity="0.8">
		<path fill="#FFFFFF" d="M44.9,224.3c-0.3-4.1-0.5-8.3-0.7-12.4l-0.3-6.2c-0.1-2.1-0.1-4.1-0.2-6.2l-0.2-6.2
			c-0.1-2.1-0.2-4.1-0.2-6.2L43,174.7c-0.1-4.1-0.1-8.3-0.2-12.4l-0.1-12.4c-0.1-4.1,0-8.3,0-12.4c0-4.1,0-8.3,0.1-12.4l0.1-8.4
			l7.2,4.6l31.9,20.7l31.8,20.8l31.7,21L177,205l-7.3,3.8l0.6-17.3c0.2-5.8,0.4-11.5,0.7-17.3l0.8-17.3l0.4-8.6
			c0.1-2.9,0.3-5.8,0.5-8.6l1-17.3c0.3-5.8,0.7-11.5,1.1-17.3l0.6-8.6L176,88c0.4-5.8,0.9-11.5,1.4-17.3c0.3,5.8,0.5,11.5,0.7,17.3
			l0.3,8.6l0.2,8.6c0.1,5.8,0.3,11.5,0.3,17.3l0.2,17.3c0,2.9,0.1,5.8,0.1,8.6l0,8.6l0,17.3c0,5.8,0,11.5,0,17.3l-0.1,17.3l-0.1,8.5
			l-7.2-4.7L140,192.1l-31.8-20.8l-31.7-21l-31.6-21.1l7.2-3.8c-0.2,4.1-0.4,8.2-0.6,12.4c-0.2,4.1-0.4,8.2-0.7,12.4l-0.7,12.4
			c-0.2,4.1-0.5,8.2-0.8,12.4l-0.9,12.4c-0.1,2.1-0.3,4.1-0.5,6.2l-0.5,6.2c-0.2,2.1-0.3,4.1-0.6,6.2l-0.6,6.2
			C45.9,216,45.4,220.2,44.9,224.3z"/>
	</g>
</g>
<g id="marco" display="none">
	<g id="guias">
	</g>
	
		<polygon display="inline" fill="none" stroke="#000000" stroke-width="7" stroke-linecap="round" stroke-linejoin="round" stroke-miterlimit="10" points="
		44.9,3.5 3.5,45.8 3.5,268.6 111.2,328.4 219.3,268.6 219.3,45.8 177.4,3.5 	"/>
</g>
<g id="S">
	<g>
		<path fill="#FFFFFF" d="M111.2,166.4l16.9,10.1l16.8,10.2l16.8,10.2l16.8,10.3c0.6,0.4,0.9,1,0.9,1.6l0,0.1c0.1,3,0.3,5.9,0.4,8.9
			l0.3,8.9c0.1,3,0.2,5.9,0.3,8.9l0.2,8.9c0,1.1-0.5,2-1.4,2.6l-0.1,0.1l-8.2,5.4c-2.7,1.8-5.5,3.5-8.2,5.3l-16.5,10.6
			c-5.5,3.5-11.1,7-16.6,10.5c-5.5,3.5-11,7-16.6,10.4l-0.1,0.1c-1.1,0.7-2.4,0.6-3.4-0.1L93,278.6c-2.7-1.8-5.5-3.6-8.2-5.4
			l-8.2-5.5c-2.7-1.8-5.4-3.6-8.1-5.5l-8.1-5.5c-2.7-1.8-5.4-3.7-8.1-5.6l-8.1-5.6l-0.1-0.1c-0.3-0.2-0.5-0.6-0.5-0.9l0.5-11.2
			l0.3-5.6l0.3-5.6l0.3,5.6l0.3,5.6l0.5,11.2l-0.5-1l8.5,4.9c2.8,1.6,5.7,3.3,8.5,4.9l8.5,5c2.8,1.6,5.6,3.3,8.4,5l8.4,5
			c2.8,1.7,5.6,3.4,8.4,5.1l16.7,10.3l-3.5,0c5.5-3.6,11-7.1,16.5-10.6c5.5-3.5,11-7.1,16.5-10.5l16.6-10.4c2.8-1.7,5.5-3.5,8.3-5.2
			l8.4-5.1l-1.5,2.7l0.2-8.9c0-3,0.2-5.9,0.3-8.9l0.3-8.9c0.1-3,0.3-5.9,0.4-8.9l0.9,1.7L160,199.7l-16.3-11l-16.3-11.1L111.2,166.4
			z"/>
	</g>
	<g>
		<path fill="#FFFFFF" d="M177.4,70.7l-0.3-6.1l-0.3-6.1l-0.5-12.2l1.2,1.2c-5.5,0.3-11,0.7-16.6,0.9c-5.5,0.3-11,0.6-16.6,0.7
			l-8.3,0.3c-2.8,0.1-5.5,0.2-8.3,0.3l-16.6,0.4c-5.5,0.1-11,0-16.6,0c-5.5,0-11,0-16.6-0.1l-16.6-0.2c-2.8,0-5.5-0.1-8.3-0.1
			l-8.3-0.2l3.2-3.2l-0.2,19.7c0,6.6-0.2,13.2-0.3,19.7l-0.3,19.7L47,125.3l-1-1.8l16.4,10.8l16.3,10.8L95,156
			c5.4,3.6,10.8,7.3,16.2,11c-5.7-3.3-11.3-6.6-16.9-9.9l-16.9-10l-16.8-10l-16.8-10.1c-0.6-0.4-0.9-1-1-1.7l0-0.1l-0.4-19.7
			l-0.3-19.7c-0.1-6.6-0.2-13.2-0.3-19.7l-0.2-19.7c0-1.7,1.4-3.2,3.1-3.2l0,0l0.1,0l8.3-0.1c2.8,0,5.5,0,8.3,0l16.6,0.1
			c5.5,0,11,0.1,16.6,0.2c5.5,0.1,11,0.1,16.6,0.3l16.5,0.1c2.8,0,5.5,0.1,8.3,0.1l8.3,0.2c5.5,0.1,11,0.3,16.6,0.4
			c5.5,0.1,11,0.4,16.6,0.6l0.1,0c0.6,0,1.1,0.5,1.1,1.2l0,0L178,58.5l-0.3,6.1L177.4,70.7z"/>
	</g>
	<polyline id="original_2_" display="none" fill="none" stroke="#000000" stroke-width="2" stroke-miterlimit="10" points="
		137.2,148.1 137.2,140.1 111.3,126.1 85.3,140.1 85.3,158.1 137.2,174.1 137.2,192.2 111.3,206.4 85.3,192.2 85.3,184.3 	"/>
	<g id="guias_1_" display="none">
	</g>
</g>
<g id="T_1_">
	<line fill="none" stroke="#FFFFFF" stroke-width="7" stroke-miterlimit="10" x1="111.2" y1="287.3" x2="111.2" y2="46.3"/>
</g>
</svg>
