<?xml version="1.0" standalone="no"?>
<!DOCTYPE svg PUBLIC "-//W3C//DTD SVG 20010904//EN"
 "http://www.w3.org/TR/2001/REC-SVG-20010904/DTD/svg10.dtd">
<svg version="1.0" xmlns="http://www.w3.org/2000/svg"
 width="1328.000000pt" height="1328.000000pt" viewBox="0 0 1328.000000 1328.000000"
 preserveAspectRatio="xMidYMid meet">
<metadata>
Created by potrace 1.11, written by Peter Selinger 2001-2013
</metadata>
<g transform="translate(0.000000,1328.000000) scale(0.100000,-0.100000)"
fill="#000000" stroke="none">
<path d="M3949 11550 c-49 -14 -71 -32 -89 -73 -15 -37 -17 -71 -15 -292 4
-350 14 -1055 21 -1470 3 -192 7 -479 8 -637 0 -159 3 -288 6 -288 3 0 7 -116
8 -258 5 -367 5 -366 17 -374 7 -5 7 -8 -1 -8 -7 0 -11 -54 -11 -165 0 -96 4
-165 9 -165 5 0 2 -7 -7 -16 -11 -11 -13 -20 -6 -27 5 -5 7 -16 4 -23 -3 -8 1
-22 8 -31 9 -11 10 -14 2 -9 -17 10 -15 -715 1 -726 8 -6 8 -8 0 -8 -13 0 -12
-249 1 -270 5 -9 4 -11 -3 -6 -7 4 -12 3 -12 -3 0 -5 5 -13 10 -16 7 -4 7 -12
0 -25 -13 -25 -13 -33 3 -24 9 5 9 4 0 -6 -7 -8 -8 -22 -3 -41 5 -16 5 -29 0
-29 -8 0 -5 -49 5 -77 2 -7 1 -13 -3 -13 -4 0 -7 -18 -7 -40 0 -22 2 -40 5
-40 8 0 5 -74 -3 -87 -5 -8 -3 -13 4 -13 7 0 9 -3 6 -6 -3 -4 -2 -16 4 -27 6
-10 7 -17 2 -14 -5 3 -8 -34 -7 -86 1 -51 3 -132 4 -182 1 -49 7 -96 14 -104
7 -10 7 -13 0 -8 -15 9 -15 -73 0 -92 8 -12 8 -13 -2 -7 -9 6 -11 1 -8 -18 3
-14 7 -30 10 -35 4 -5 3 -12 -2 -15 -5 -3 -7 -20 -5 -38 3 -39 12 -284 15
-416 1 -51 6 -95 10 -98 5 -3 5 -10 2 -16 -10 -16 -14 -58 -5 -58 4 0 7 -11 7
-25 0 -14 -4 -25 -9 -25 -6 0 -6 -5 0 -12 5 -7 8 -28 6 -46 -2 -24 0 -31 10
-26 9 6 9 5 0 -7 -7 -8 -10 -24 -8 -35 3 -10 7 -66 10 -124 2 -58 6 -141 9
-185 2 -44 5 -106 7 -137 2 -59 18 -81 20 -30 3 62 6 90 14 102 6 9 4 11 -6 5
-11 -7 -12 -6 -2 6 10 12 10 18 0 29 -8 8 -8 11 -1 7 20 -11 24 74 5 98 -15
18 -15 19 2 6 15 -12 17 -11 18 5 0 11 2 31 3 46 1 16 -3 24 -9 20 -5 -3 -4 2
4 11 7 9 11 17 8 17 -3 0 -2 14 3 30 6 21 5 30 -3 30 -8 0 -8 3 -2 8 6 4 11
21 12 37 1 17 5 55 8 85 3 30 8 80 10 110 3 30 7 71 8 91 2 19 7 41 11 47 4 7
2 12 -6 12 -8 0 -9 3 -3 8 12 9 13 32 1 51 -6 9 -5 12 2 7 6 -4 11 1 10 11 0
10 3 47 6 83 4 36 8 92 10 126 1 33 6 65 10 72 4 7 2 12 -6 12 -10 0 -10 2 1
9 9 6 10 11 2 15 -7 5 -8 14 -3 24 5 9 10 35 11 57 1 21 4 41 6 43 2 3 0 14
-6 25 -8 14 -8 18 0 12 8 -4 10 2 7 19 -3 14 -1 28 3 30 9 6 8 37 -3 54 -4 7
-2 12 5 12 7 0 5 9 -7 22 -15 19 -16 20 -1 9 16 -12 17 -9 18 40 1 30 2 65 4
79 1 14 6 67 9 119 4 52 9 98 12 102 2 4 0 10 -6 14 -6 4 -7 12 -3 18 4 7 8
30 10 52 1 22 4 59 6 83 2 25 -1 42 -7 42 -8 0 -7 3 0 8 6 4 12 32 13 62 4 82
8 116 15 129 4 6 3 11 -1 11 -5 0 -9 9 -9 20 0 11 3 20 6 20 3 0 6 37 7 83 5
170 11 269 17 274 3 3 1 14 -4 24 -6 10 -6 20 -1 23 8 5 10 40 15 207 1 36 6
70 10 77 4 7 2 12 -4 12 -6 0 -8 5 -4 11 4 7 9 46 10 88 7 151 11 187 18 199
4 7 2 12 -4 12 -6 0 -8 5 -4 12 4 6 8 50 9 96 1 62 5 87 14 90 8 3 11 0 7 -7
-4 -6 -1 -11 7 -11 7 0 23 -9 35 -20 12 -11 26 -20 31 -20 5 0 23 -12 40 -26
17 -14 35 -23 41 -19 5 3 10 -2 10 -11 0 -10 3 -15 6 -11 3 3 11 2 18 -3 63
-52 77 -61 86 -55 5 3 10 -1 10 -10 0 -11 5 -15 16 -11 8 3 12 2 9 -4 -3 -6
-2 -10 4 -10 5 0 16 -6 23 -12 23 -22 108 -78 118 -78 5 0 13 -6 17 -13 4 -6
22 -19 38 -27 17 -8 35 -19 42 -25 7 -5 19 -16 28 -23 8 -7 21 -10 28 -6 6 4
9 3 4 -1 -9 -10 43 -46 55 -39 5 3 7 2 6 -3 -2 -4 1 -9 6 -10 5 -1 12 -5 15
-10 12 -16 81 -64 81 -56 0 4 4 3 8 -2 10 -15 72 -58 72 -51 0 4 14 -7 31 -24
18 -16 38 -30 46 -30 7 0 16 -7 19 -15 4 -8 10 -15 15 -15 6 0 50 -27 99 -60
49 -33 94 -60 100 -60 5 0 10 -5 10 -11 0 -6 7 -9 15 -5 8 3 14 1 12 -5 -1 -5
12 -17 28 -27 17 -9 32 -19 35 -22 12 -14 70 -51 70 -45 0 4 7 -1 16 -9 24
-24 101 -76 113 -76 6 0 11 -4 11 -10 0 -5 5 -10 10 -10 6 0 20 -9 32 -20 12
-11 28 -20 35 -20 7 0 13 -4 13 -9 0 -5 14 -14 30 -21 17 -7 30 -16 30 -20 0
-4 14 -13 30 -20 17 -7 30 -16 30 -21 0 -4 8 -10 19 -14 10 -3 29 -14 41 -25
12 -11 27 -17 31 -14 5 3 9 -2 9 -11 0 -9 4 -14 8 -11 5 3 18 -4 30 -14 12
-11 24 -20 28 -20 4 0 16 -7 26 -17 10 -9 26 -21 36 -27 10 -6 36 -22 58 -36
21 -14 41 -25 44 -24 3 0 13 -9 22 -20 13 -16 18 -17 18 -6 1 9 5 5 11 -8 5
-13 14 -22 20 -20 6 2 25 -9 41 -24 16 -15 35 -25 44 -21 8 3 14 2 12 -3 -2
-5 0 -9 4 -9 4 0 14 -9 22 -20 14 -18 15 -272 16 -2207 0 -1204 -2 -2188 -4
-2188 -4 0 -304 182 -386 235 -118 75 -717 435 -725 435 -5 0 -108 68 -125 82
-8 7 -16 12 -17 10 -4 -4 -94 48 -115 66 -10 8 -18 11 -18 7 0 -4 -8 -1 -17 7
-25 21 -292 178 -304 178 -5 0 -9 4 -9 9 0 5 -8 11 -17 15 -10 3 -25 10 -33
16 -16 10 -341 198 -420 242 -25 14 -61 34 -80 45 -19 12 -72 42 -118 68 -45
26 -84 50 -86 54 -2 3 -7 78 -11 166 -9 230 -22 477 -30 590 -1 22 2 48 7 59
7 12 6 22 -1 29 -8 8 -11 4 -12 -14 -1 -13 -3 -35 -4 -49 -2 -14 -6 -88 -10
-165 -3 -77 -8 -171 -10 -210 -2 -38 -7 -128 -10 -200 -4 -71 -8 -155 -9 -185
-2 -30 0 -62 5 -71 4 -8 65 -55 136 -104 70 -49 130 -92 131 -97 2 -4 10 -8
17 -8 8 0 21 -8 31 -17 10 -10 26 -22 36 -28 27 -15 408 -278 423 -292 8 -7
16 -13 20 -13 9 0 169 -113 173 -122 2 -5 8 -8 13 -8 9 0 289 -188 299 -200 3
-4 10 -9 15 -11 6 -2 172 -112 370 -244 198 -132 372 -246 388 -254 15 -7 27
-17 27 -22 0 -5 4 -9 9 -9 6 0 124 -75 263 -167 304 -200 328 -213 371 -203
27 6 289 159 324 190 7 5 15 10 18 10 3 0 18 8 33 19 15 10 52 34 82 53 30 19
159 101 286 181 127 81 236 147 243 147 6 0 11 4 11 8 0 5 19 19 43 32 23 13
44 27 47 30 3 4 16 13 30 20 13 7 150 94 305 193 154 99 289 185 300 191 11 6
52 32 90 57 39 26 108 71 155 101 47 30 117 75 155 100 39 25 99 64 135 86 36
23 73 47 82 54 9 6 98 65 198 130 118 78 187 129 201 151 19 31 20 43 14 292
-3 143 -8 319 -10 390 -3 72 -7 193 -10 270 -4 126 -11 314 -19 496 -2 36 -6
72 -11 78 -4 7 -7 65 -7 129 0 69 -4 122 -10 130 -8 9 -7 11 3 7 11 -4 14 6
13 44 -1 27 -5 54 -8 60 -4 6 -4 11 1 11 4 0 8 137 8 304 0 179 -4 302 -9 299
-5 -4 -6 0 -1 6 12 20 12 210 0 204 -5 -3 -4 0 2 8 16 16 17 33 1 23 -7 -5 -8
-3 -3 6 11 19 12 1040 1 1033 -5 -4 -6 0 -1 7 12 19 12 200 1 200 -6 0 -5 5 2
12 9 9 8 16 -5 30 -16 18 -16 18 2 12 12 -5 16 -4 12 3 -4 6 -8 115 -8 242 -1
162 -5 231 -13 231 -8 0 -8 2 0 8 14 9 13 94 -1 104 -7 5 -7 8 0 8 6 0 11 11
11 25 1 14 -2 25 -8 25 -5 0 -6 6 -1 13 12 19 12 37 3 63 -5 13 -6 24 -2 24 4
0 8 14 7 30 0 17 -4 30 -8 30 -4 0 -4 8 2 17 5 9 5 26 1 38 -5 12 -5 28 0 35
4 7 6 18 4 25 -3 6 -6 101 -7 211 -1 109 -5 204 -9 210 -4 6 -4 14 -1 18 12
12 3 279 -10 295 -9 12 -9 13 1 7 7 -4 12 -2 12 6 0 8 -6 20 -12 27 -10 10
-10 12 -1 7 9 -5 11 7 9 47 -1 29 -6 59 -10 65 -4 7 -3 12 2 12 5 0 9 7 9 15
0 8 -4 15 -8 15 -5 0 -5 11 0 23 5 13 5 30 1 37 -5 8 -5 21 0 31 5 9 7 19 3
22 -3 4 -7 73 -10 154 -6 227 -9 278 -16 289 -3 6 -3 14 0 18 9 9 12 56 4 56
-3 0 -6 45 -6 100 0 84 -2 99 -14 95 -11 -4 -11 -1 2 13 9 10 15 21 12 24 -3
2 -5 32 -6 66 -1 35 -6 62 -12 62 -6 0 -8 -3 -5 -6 4 -3 3 -18 -2 -32 -4 -15
-3 -37 1 -50 6 -15 5 -21 -1 -17 -5 3 -10 -4 -9 -17 0 -13 -2 -63 -6 -113 -4
-49 -8 -110 -10 -135 -1 -25 -4 -45 -5 -45 -8 0 -5 -103 4 -114 8 -11 8 -13
-1 -7 -14 8 -15 0 -17 -116 0 -32 -3 -58 -6 -58 -3 0 -6 -12 -6 -27 -2 -85
-13 -246 -18 -251 -3 -3 -1 -11 5 -19 8 -8 8 -13 1 -13 -6 0 -10 -19 -10 -42
0 -24 -1 -45 -2 -48 -1 -3 -3 -31 -5 -63 -1 -32 -6 -61 -9 -64 -3 -3 -1 -12 5
-20 9 -10 8 -13 -2 -13 -11 0 -11 -2 1 -10 8 -5 11 -10 5 -10 -14 0 -15 -100
-1 -100 6 0 5 -4 -3 -9 -9 -6 -14 -35 -16 -89 -2 -44 -6 -85 -9 -90 -4 -6 -2
-13 4 -17 7 -4 7 -13 -1 -26 -8 -15 -7 -24 3 -37 8 -10 9 -13 1 -9 -7 5 -11 1
-11 -10 0 -10 -3 -63 -7 -118 -13 -178 -14 -235 -1 -228 6 4 5 -1 -3 -10 -17
-21 -23 -127 -7 -127 6 0 5 -4 -3 -9 -8 -5 -11 -15 -8 -23 3 -8 1 -21 -3 -28
-5 -8 -5 -21 0 -31 5 -9 6 -19 2 -23 -6 -7 -8 -21 -16 -201 -3 -55 -5 -100 -6
-100 -1 0 -3 -45 -6 -100 -2 -55 -6 -105 -9 -112 -2 -7 0 -15 6 -18 5 -4 6
-12 2 -18 -7 -11 -10 -40 -16 -137 -2 -25 2 -51 8 -59 7 -11 7 -13 -1 -8 -11
7 -13 -13 -19 -204 -1 -53 -5 -102 -9 -108 -4 -6 -3 -11 3 -11 7 0 7 -9 3 -22
-5 -13 -8 -56 -8 -95 1 -40 -3 -73 -8 -73 -5 0 -3 -7 4 -15 7 -8 9 -15 4 -15
-5 0 -10 -25 -10 -55 -1 -38 2 -52 10 -48 6 4 5 -1 -3 -10 -7 -9 -10 -17 -5
-17 5 0 2 -5 -6 -10 -10 -6 -11 -10 -3 -10 9 0 10 -7 5 -22 -10 -27 -9 -39 1
-55 5 -8 3 -13 -5 -13 -9 0 -9 -3 2 -10 8 -5 10 -10 3 -10 -6 0 -10 -8 -8 -17
2 -10 4 -18 5 -18 1 0 3 -8 5 -18 2 -9 0 -15 -5 -12 -4 2 -8 -21 -9 -53 -1
-31 -3 -74 -5 -95 -2 -21 1 -40 6 -43 4 -3 5 -11 1 -17 -4 -7 -9 -25 -10 -42
-5 -90 -5 -133 1 -143 3 -6 0 -12 -6 -15 -10 -3 -10 -7 1 -20 7 -10 9 -17 3
-17 -6 0 -11 -36 -11 -92 -1 -51 -4 -106 -7 -122 -5 -27 -4 -28 13 -15 17 13
17 13 3 -5 -9 -12 -16 -46 -18 -95 -1 -42 -3 -87 -5 -101 -1 -14 2 -31 8 -39
7 -11 7 -13 -1 -8 -7 4 -11 -5 -12 -24 0 -20 3 -27 11 -22 7 4 6 -1 -2 -11
-12 -14 -12 -19 -2 -26 8 -5 9 -9 3 -11 -6 -2 -12 -38 -13 -82 l-2 -77 -33 25
c-18 14 -37 25 -42 25 -6 0 -12 4 -14 8 -6 16 -163 116 -177 114 -7 -2 -11 0
-8 5 6 10 -88 76 -108 76 -8 0 -13 4 -12 8 1 4 -2 7 -7 7 -5 0 -12 4 -15 10
-10 15 -111 83 -111 75 0 -5 -4 -3 -8 3 -10 15 -82 68 -82 60 0 -3 -9 2 -19
12 -42 38 -53 44 -67 38 -8 -3 -13 -2 -10 2 5 8 -28 42 -40 42 -3 0 -20 11
-36 25 -16 14 -34 23 -39 19 -5 -3 -9 -1 -9 5 0 6 -28 28 -62 50 -35 22 -74
50 -88 61 -14 11 -30 20 -37 20 -6 0 -13 4 -15 9 -1 5 -10 11 -18 13 -8 2 -21
11 -28 21 -7 9 -20 17 -28 17 -8 0 -14 5 -14 10 0 6 -6 10 -14 10 -7 0 -19 7
-26 15 -7 8 -16 12 -21 9 -5 -3 -9 -1 -9 4 0 5 -30 29 -67 53 -38 23 -69 47
-71 51 -2 4 -9 8 -17 8 -7 0 -18 7 -25 15 -7 8 -16 13 -20 10 -4 -3 -11 2 -14
11 -4 9 -13 14 -22 10 -8 -3 -13 -2 -10 2 4 7 -83 71 -101 74 -5 0 -13 8 -19
16 -7 9 -16 12 -25 7 -8 -5 -11 -5 -7 0 10 11 -70 67 -85 59 -7 -4 -9 -4 -5 1
10 11 -101 87 -115 79 -7 -4 -9 -4 -5 1 11 11 -90 78 -104 69 -6 -4 -8 -3 -5
3 6 9 -42 51 -51 45 -1 -1 -8 2 -15 8 -46 39 -61 50 -69 50 -4 0 -10 0 -13 1
-2 0 -18 13 -36 30 -17 16 -35 29 -40 29 -10 0 -24 10 -58 41 -17 16 -18 117
-18 2278 l0 2261 21 5 c12 2 28 4 36 4 33 -1 464 11 610 16 85 4 209 8 275 10
333 11 637 23 770 30 81 5 251 14 380 20 245 11 351 18 357 21 14 9 18 -18 23
-143 8 -210 22 -518 30 -657 2 -37 6 -71 10 -74 3 -3 4 5 4 19 -2 24 8 236 16
364 13 209 28 498 28 538 -1 34 -11 46 -43 52 -41 8 -326 17 -1265 40 -77 2
-329 6 -560 9 -524 7 -1176 16 -1530 22 -503 8 -1960 11 -1986 4z m702 -263
c212 -2 391 -7 397 -11 6 -3 13 -2 17 4 4 6 11 8 16 4 6 -3 324 -7 707 -8
l697 -3 3 -2171 c2 -1963 1 -2172 -14 -2172 -8 0 -12 5 -9 10 6 9 -17 15 -40
10 -5 -1 -7 2 -2 6 10 10 -74 65 -87 57 -6 -3 -8 -3 -4 2 8 8 -53 55 -71 55
-6 0 -11 5 -11 11 0 5 -4 7 -10 4 -5 -3 -10 -2 -10 2 0 9 -94 73 -107 74 -5 0
-12 7 -16 15 -4 8 -12 14 -18 14 -11 0 -72 41 -77 53 -2 4 -8 5 -13 1 -5 -3
-9 0 -9 6 0 6 -4 9 -9 6 -5 -3 -12 1 -15 10 -3 8 -10 13 -15 10 -5 -3 -12 1
-15 10 -4 9 -13 14 -22 10 -8 -3 -12 -2 -9 3 3 5 -4 12 -15 16 -11 3 -20 11
-20 16 0 6 -10 8 -22 4 -18 -5 -20 -4 -8 4 13 10 12 12 -5 11 -3 0 -15 9 -27
20 -12 11 -34 26 -50 32 -15 7 -28 16 -28 20 0 5 -5 8 -10 8 -6 0 -20 9 -32
20 -12 11 -30 20 -40 20 -11 0 -16 5 -13 10 3 6 -1 10 -9 10 -9 0 -16 5 -16
10 0 6 -6 10 -12 10 -7 0 -26 11 -42 25 -16 13 -37 27 -47 30 -11 4 -19 11
-19 16 0 5 -4 9 -10 9 -5 0 -43 22 -83 50 -41 27 -86 55 -100 61 -15 7 -24 16
-21 21 3 5 2 8 -3 7 -12 -4 -63 23 -63 33 0 4 -4 8 -10 8 -5 0 -32 16 -58 35
-27 19 -52 32 -55 28 -4 -3 -7 -1 -7 5 0 7 -16 20 -35 29 -19 9 -35 21 -35 25
0 5 -4 6 -10 3 -5 -3 -10 -1 -10 5 0 7 -7 10 -14 7 -9 -4 -13 -1 -11 6 3 7
-13 21 -35 31 -22 11 -40 23 -40 28 0 5 -4 7 -9 4 -5 -3 -21 6 -35 19 -15 14
-31 25 -37 25 -9 0 -21 8 -54 38 -7 6 -18 12 -24 12 -6 0 -11 5 -11 10 0 6 -5
10 -10 10 -6 0 -58 32 -116 70 -57 39 -109 70 -114 70 -6 0 -10 4 -10 9 0 5
-8 12 -19 16 -10 3 -29 15 -42 26 -12 11 -29 17 -36 14 -8 -2 -12 -1 -8 4 3 5
-8 15 -24 22 -16 7 -27 17 -25 21 3 4 1 8 -5 8 -11 0 -150 87 -191 120 -14 11
-30 20 -36 20 -7 0 -14 6 -16 13 -6 14 -1 680 6 1079 8 379 16 950 21 1343 2
187 4 347 4 355 1 13 15 15 84 13 45 -1 256 -4 468 -6z m390 -3460 c-10 -9
-11 -8 -5 6 3 10 9 15 12 12 3 -3 0 -11 -7 -18z m-520 -20 c-10 -9 -11 -8 -5
6 3 10 9 15 12 12 3 -3 0 -11 -7 -18z m764 -166 c3 -5 2 -12 -3 -15 -5 -3 -9
1 -9 9 0 17 3 19 12 6z m440 -409 c-3 -3 -11 0 -18 7 -9 10 -8 11 6 5 10 -3
15 -9 12 -12z m90 -32 c-3 -5 -12 -10 -18 -10 -7 0 -6 4 3 10 19 12 23 12 15
0z m3435 4 c0 -8 -19 -13 -24 -6 -3 5 1 9 9 9 8 0 15 -2 15 -3z m-160 -608 c0
-2 -6 -9 -14 -15 -11 -9 -16 -9 -22 0 -4 7 -3 9 4 5 6 -3 13 -2 17 4 6 10 15
14 15 6z m80 -32 c0 -8 -19 -13 -24 -6 -3 5 1 9 9 9 8 0 15 -2 15 -3z m-2200
-78 c0 -2 -7 -7 -16 -10 -8 -3 -12 -2 -9 4 6 10 25 14 25 6z m-175 -236 c-3
-6 2 -13 12 -17 10 -4 24 -13 31 -20 8 -7 18 -10 24 -7 7 4 8 2 4 -4 -4 -7 -2
-12 3 -12 21 0 26 -3 46 -24 12 -11 38 -30 58 -40 20 -11 37 -23 37 -29 0 -5
9 -7 20 -4 11 3 18 2 15 -3 -5 -8 98 -80 114 -80 5 0 11 -3 13 -7 5 -12 95
-73 107 -73 6 0 11 -4 11 -10 0 -5 7 -10 15 -10 8 0 15 -4 15 -10 0 -5 7 -10
15 -10 8 0 15 -4 15 -10 0 -5 7 -10 15 -10 8 0 15 -4 15 -10 0 -5 6 -10 14
-10 7 0 19 -7 26 -15 7 -8 16 -12 21 -9 5 3 9 1 9 -3 0 -10 120 -91 134 -91 5
0 12 -4 15 -9 8 -12 161 -115 161 -109 0 3 12 -6 26 -19 15 -14 33 -25 40 -25
8 0 14 -4 14 -10 0 -5 7 -10 15 -10 8 0 25 -11 37 -23 13 -13 32 -23 42 -21
10 1 15 0 12 -3 -5 -6 18 -33 29 -33 4 0 32 -18 64 -40 31 -22 62 -40 69 -40
7 0 12 -4 12 -10 0 -5 7 -10 15 -10 8 0 15 -4 15 -8 0 -5 12 -15 28 -23 15 -8
29 -17 32 -21 3 -3 12 -8 19 -10 8 -2 25 -11 37 -22 12 -10 25 -17 29 -16 4 1
15 -8 24 -19 10 -12 23 -21 29 -21 6 0 17 -6 24 -12 20 -19 50 -38 71 -44 9
-4 17 -10 17 -15 0 -5 5 -9 11 -9 6 0 17 -7 26 -15 8 -8 19 -13 24 -10 5 4 9
1 9 -5 0 -6 5 -8 10 -5 6 4 9 1 8 -7 -2 -7 7 -14 20 -16 12 -2 20 -8 17 -13
-4 -5 1 -9 9 -9 9 0 16 -5 16 -11 0 -5 5 -7 10 -4 6 3 10 1 10 -5 0 -6 4 -9 9
-6 5 3 12 -1 15 -10 4 -10 12 -14 23 -10 10 4 14 4 11 0 -9 -9 20 -37 31 -30
5 3 11 -1 15 -9 3 -8 12 -15 20 -15 8 0 16 -3 18 -7 8 -19 88 -64 100 -57 7 4
10 4 6 -1 -9 -9 8 -25 45 -44 15 -8 27 -18 27 -23 0 -4 5 -8 11 -8 6 0 26 -12
44 -26 20 -15 39 -23 46 -18 7 4 10 3 7 -2 -3 -5 25 -29 62 -54 38 -25 67 -48
64 -51 -2 -3 -6 -78 -9 -165 -3 -87 -8 -229 -11 -314 -5 -143 -8 -230 -14
-525 l-3 -110 -36 -21 c-40 -23 -301 -183 -426 -261 -44 -28 -185 -116 -314
-196 -128 -81 -237 -147 -241 -147 -5 0 -10 -3 -12 -8 -4 -10 -166 -112 -178
-112 -6 0 -10 -3 -10 -8 0 -4 -17 -16 -37 -27 -21 -11 -40 -22 -43 -25 -3 -3
-41 -28 -85 -55 -44 -27 -116 -72 -160 -100 -150 -95 -514 -330 -627 -403 -62
-40 -121 -75 -130 -78 -10 -4 -18 -10 -18 -14 0 -10 -49 -31 -53 -22 -3 4 -5
941 -4 2082 0 1514 3 2077 11 2082 15 10 18 10 11 -2z m2335 6 c0 -2 -8 -10
-17 -17 -16 -13 -17 -12 -4 4 13 16 21 21 21 13z m-1920 -172 c0 -8 -19 -13
-24 -6 -3 5 1 9 9 9 8 0 15 -2 15 -3z m-3230 -160 c0 -8 -19 -13 -24 -6 -3 5
1 9 9 9 8 0 15 -2 15 -3z m4184 -162 c3 -5 -1 -9 -9 -9 -8 0 -12 4 -9 9 3 4 7
8 9 8 2 0 6 -4 9 -8z m204 -127 c-3 -3 -9 2 -12 12 -6 14 -5 15 5 6 7 -7 10
-15 7 -18z m-4418 5 c0 -5 -2 -10 -4 -10 -3 0 -8 5 -11 10 -3 6 -1 10 4 10 6
0 11 -4 11 -10z m25 -240 c-3 -5 -12 -10 -18 -10 -7 0 -6 4 3 10 19 12 23 12
15 0z m4868 -75 c-3 -9 -8 -14 -10 -11 -3 3 -2 9 2 15 9 16 15 13 8 -4z
m-4833 -361 c0 -8 -19 -13 -24 -6 -3 5 1 9 9 9 8 0 15 -2 15 -3z"/>
<path d="M9279 10378 c-6 -21 -5 -38 1 -38 5 0 8 9 7 20 -1 17 -5 26 -8 18z"/>
</g>
</svg>
